<?xml version="1.0" encoding="utf-8"?>
<!-- Generator: Adobe Illustrator 16.0.1, SVG Export Plug-In . SVG Version: 6.00 Build 0)  -->
<svg version="1.1" id="Capa_2" xmlns="http://www.w3.org/2000/svg" xmlns:xlink="http://www.w3.org/1999/xlink" x="0px" y="0px"
	 width="295.982px" height="140.809px" viewBox="0 0 295.982 140.809" enable-background="new 0 0 295.982 140.809"
	 xml:space="preserve">
<path fill="#FF1515" d="M90.541,140.809H54.364c-8.685,0-15.75-8.376-15.75-18.67V18.67C38.614,8.375,45.68,0,54.364,0h36.177
	c8.686,0,15.75,8.375,15.75,18.67v103.469C106.291,132.433,99.226,140.809,90.541,140.809z M54.364,11.932
	c-2.444,0-4.509,3.085-4.509,6.738v103.469c0,3.653,2.063,6.738,4.509,6.738h36.177c2.444,0,4.509-3.085,4.509-6.738V18.67
	c0-3.653-2.063-6.738-4.509-6.738H54.364z M28.843,119.027H15.258c-8,0-14.267-8.2-14.267-18.672V40.455
	c0-10.472,6.267-18.674,14.267-18.674h13.585c3.104,0,5.621,2.671,5.621,5.966s-2.517,5.966-5.621,5.966H15.258
	c-1.037,0-3.025,2.625-3.025,6.742v59.899c0,4.114,1.988,6.741,3.025,6.741h13.585c3.104,0,5.621,2.669,5.621,5.966
	C34.464,116.357,31.947,119.027,28.843,119.027z M243.601,140.809h-36.179c-8.683,0-15.747-8.376-15.747-18.67V18.67
	C191.676,8.375,198.74,0,207.423,0h36.179c8.685,0,15.751,8.375,15.751,18.67v103.469
	C259.352,132.433,252.285,140.809,243.601,140.809z M207.423,11.932c-2.441,0-4.506,3.085-4.506,6.738v103.469
	c0,3.653,2.063,6.738,4.506,6.738h36.179c2.443,0,4.509-3.085,4.509-6.738V18.67c0-3.653-2.064-6.738-4.509-6.738H207.423z
	 M282.708,119.027h-13.586c-3.104,0-5.621-2.67-5.621-5.965c0-3.297,2.517-5.966,5.621-5.966h13.586
	c1.039,0,3.024-2.627,3.024-6.741V40.455c0-4.117-1.985-6.742-3.024-6.742h-13.586c-3.104,0-5.621-2.671-5.621-5.966
	s2.517-5.966,5.621-5.966h13.586c8,0,14.267,8.202,14.267,18.674v59.899C296.974,110.826,290.708,119.027,282.708,119.027z
	 M196.44,59.125h-88.933c-3.103,0-5.619-2.669-5.619-5.966c0-3.295,2.518-5.967,5.619-5.967h88.933c3.104,0,5.62,2.672,5.62,5.967
	C202.061,56.456,199.545,59.125,196.44,59.125z M196.44,93.615h-88.933c-3.103,0-5.619-2.672-5.619-5.967
	c0-3.297,2.518-5.966,5.619-5.966h88.933c3.104,0,5.62,2.669,5.62,5.966C202.061,90.944,199.545,93.615,196.44,93.615z"/>
</svg>
