<?xml version="1.0" encoding="utf-8"?>
<!-- Generator: Adobe Illustrator 16.0.1, SVG Export Plug-In . SVG Version: 6.00 Build 0)  -->
<!DOCTYPE svg PUBLIC "-//W3C//DTD SVG 1.1//EN" "http://www.w3.org/Graphics/SVG/1.1/DTD/svg11.dtd">
<svg version="1.1" id="Слой_1" xmlns="http://www.w3.org/2000/svg" xmlns:xlink="http://www.w3.org/1999/xlink" x="0px" y="0px"
	 width="238.635px" height="300px" viewBox="0 0 238.635 300" enable-background="new 0 0 238.635 300" xml:space="preserve">
<g>
	<g>
		<path fill="#576074" d="M117.971,269.868c-49.06,0-88.973-40.773-88.973-90.894c0-19.682,6.057-38.409,17.515-54.163
			c2.004-2.757,5.819-3.332,8.519-1.281c2.697,2.047,3.26,5.943,1.254,8.701c-9.887,13.59-15.113,29.754-15.113,46.743
			c0,43.262,34.451,78.455,76.797,78.455c42.344,0,76.796-35.193,76.796-78.455s-34.452-78.456-76.796-78.456
			c-3.364,0-6.088-2.786-6.088-6.22c0-3.435,2.724-6.22,6.088-6.22c49.06,0,88.971,40.775,88.971,90.895
			S167.03,269.868,117.971,269.868z"/>
	</g>
	<g>
		<path fill="#576074" d="M117.971,198.674c-10.632,0-19.283-8.839-19.283-19.698c0-10.862,8.651-19.697,19.283-19.697
			c10.63,0,19.277,8.835,19.277,19.697C137.248,189.835,128.601,198.674,117.971,198.674z M117.971,171.716
			c-3.92,0-7.106,3.256-7.106,7.26s3.187,7.26,7.106,7.26c3.916,0,7.103-3.256,7.103-7.26S121.887,171.716,117.971,171.716z"/>
	</g>
	<g>
		<path fill="#576074" d="M106.355,176.029c-1.313,0-2.634-0.43-3.747-1.321l-39.692-31.702c-2.649-2.115-3.117-6.023-1.046-8.729
			c2.071-2.708,5.898-3.185,8.546-1.069l39.692,31.703c2.648,2.114,3.118,6.022,1.046,8.729
			C109.952,175.208,108.162,176.029,106.355,176.029z"/>
	</g>
	<g>
		<path fill="#576074" d="M119.952,297.672c-64.34,0-116.684-53.475-116.684-119.202c0-65.729,52.344-119.203,116.684-119.203
			c64.339,0,116.683,53.474,116.683,119.203C236.635,244.197,184.291,297.672,119.952,297.672z M119.952,71.705
			c-57.625,0-104.508,47.895-104.508,106.765c0,58.867,46.882,106.764,104.508,106.764c57.627,0,104.508-47.896,104.508-106.764
			C224.46,119.6,177.579,71.705,119.952,71.705z"/>
	</g>
	<g>
		<path fill="#576074" d="M105.206,72.735c-1.466,0-2.894-0.542-4.01-1.542c-1.321-1.181-2.077-2.886-2.077-4.678V54.03
			c-9.193-1.346-16.283-9.444-16.283-19.205V22.271c0-10.698,8.518-19.4,18.988-19.4h36.251c10.475,0,18.991,8.703,18.991,19.4
			v12.554c0,9.76-7.091,17.858-16.282,19.205v12.485c0,1.792-0.757,3.498-2.077,4.678c-1.321,1.182-3.066,1.723-4.816,1.486
			c-9.51-1.294-18.376-1.292-27.882,0C105.741,72.717,105.473,72.735,105.206,72.735z M119.952,59.267
			c2.831,0,5.725,0.115,8.656,0.344V48.007c0-3.435,2.725-6.219,6.088-6.219h3.379c3.759,0,6.813-3.123,6.813-6.963V22.271
			c0-3.839-3.055-6.962-6.813-6.962h-36.251c-3.757,0-6.814,3.123-6.814,6.962v12.554c0,3.84,3.057,6.963,6.814,6.963h3.382
			c3.362,0,6.089,2.785,6.089,6.219v11.604C114.226,59.381,117.121,59.267,119.952,59.267z"/>
	</g>
	<g>
		<path fill="#576074" d="M189.895,97.18c-1.396,0-2.762-0.492-3.853-1.404c-4.286-3.58-8.951-6.864-13.864-9.767
			c-1.488-0.876-2.541-2.353-2.905-4.066c-0.364-1.713-0.005-3.503,0.993-4.93l6.511-9.322c-1.113-5.927,0.166-12.119,3.641-17.104
			c4.079-5.837,10.706-9.32,17.728-9.32c4.548,0,8.912,1.43,12.622,4.133c4.732,3.446,7.864,8.57,8.824,14.426
			c0.958,5.854-0.37,11.741-3.746,16.574c-3.474,4.972-8.799,8.235-14.649,9.088l-6.344,9.086c-0.979,1.401-2.481,2.324-4.151,2.553
			C190.432,97.163,190.162,97.18,189.895,97.18z M183.96,78.821c1.578,1.059,3.129,2.152,4.647,3.276l4.34-6.218
			c1.16-1.662,3.012-2.675,5.04-2.607c0.001,0,0.001,0,0.004,0c3.23,0,6.148-1.532,7.942-4.097c1.485-2.128,2.072-4.72,1.648-7.298
			c-0.421-2.578-1.803-4.833-3.884-6.35c-1.638-1.193-3.556-1.823-5.554-1.823c-3.097,0-6.019,1.535-7.813,4.106
			c-1.82,2.604-2.268,5.974-1.207,9.006c0.677,1.918,0.389,4.053-0.771,5.712L183.96,78.821z"/>
	</g>
</g>
</svg>
