<?xml version="1.0" encoding="utf-8"?>
<!-- Generator: Adobe Illustrator 16.0.1, SVG Export Plug-In . SVG Version: 6.00 Build 0)  -->
<!DOCTYPE svg PUBLIC "-//W3C//DTD SVG 1.1//EN" "http://www.w3.org/Graphics/SVG/1.1/DTD/svg11.dtd">
<svg version="1.1" id="Слой_1" xmlns="http://www.w3.org/2000/svg" xmlns:xlink="http://www.w3.org/1999/xlink" x="0px" y="0px"
	 width="293.159px" height="196.021px" viewBox="0 0 293.159 196.021" enable-background="new 0 0 293.159 196.021"
	 xml:space="preserve">
<g>
	<g>
		<path fill="#576074" d="M66.462,195.021C31.469,195.021,3,168.126,3,135.068c0-28.543,24.578-51.763,54.788-51.763
			c26.144,0,47.414,20.096,47.414,44.797c0,21.433-18.458,38.87-41.147,38.87c-19.75,0-35.818-15.181-35.818-33.839
			c0-16.303,14.036-29.563,31.29-29.563c15.131,0,27.442,11.63,27.442,25.927c0,4.295-2.949,11.248-8.583,16.227
			c-4.799,4.239-10.626,6.285-16.867,5.877c-3.103-0.195-5.449-2.73-5.242-5.662c0.208-2.932,2.877-5.173,5.995-4.952
			c3.087,0.191,5.921-0.825,8.419-3.033c3.523-3.113,5.014-7.31,5.014-8.456c0-8.429-7.258-15.287-16.18-15.287
			c-11.043,0-20.029,8.489-20.029,18.924c0,12.792,11.016,23.199,24.557,23.199c16.479,0,29.885-12.666,29.885-28.23
			c0-18.836-16.217-34.156-36.152-34.156c-24,0-43.526,18.445-43.526,41.122c0,27.191,23.417,49.314,52.2,49.314
			c16.802,0,49.671-0.234,97.701-0.692c3.063-0.06,5.656,2.327,5.685,5.265c0.035,2.938-2.462,5.344-5.57,5.374
			C116.21,194.788,83.301,195.021,66.462,195.021z"/>
	</g>
	<g>
		<path fill="#576074" d="M92.431,154.124c-1.44,0-2.879-0.518-3.979-1.556c-2.201-2.075-2.203-5.444-0.006-7.523l80.869-76.503
			c0.058-0.056,0.118-0.11,0.177-0.162c6.161-5.338,9.693-12.926,9.693-20.815c0-18.833-16.218-34.155-36.152-34.155
			c-10.415,0-20.479,3.526-28.36,9.93l-88.911,83.992c-2.196,2.078-5.764,2.078-7.962,0c-2.198-2.075-2.198-5.445,0-7.522
			l89.057-84.134c0.094-0.087,0.191-0.172,0.29-0.254c9.952-8.157,22.697-12.65,35.887-12.65c26.146,0,47.415,20.095,47.415,44.793
			c0,10.823-4.829,21.23-13.25,28.574l-80.784,76.426C95.316,153.605,93.873,154.124,92.431,154.124z"/>
	</g>
	<g>
		<path fill="#576074" d="M280.439,79.103H173.3c-3.109,0-5.633-2.382-5.633-5.319c0-2.938,2.523-5.32,5.633-5.32h107.14
			c3.109,0,5.632,2.382,5.632,5.32C286.071,76.721,283.549,79.103,280.439,79.103z"/>
	</g>
	<g>
		<path fill="#576074" d="M166,193.289c-1.425,0-2.848-0.506-3.945-1.522c-2.22-2.059-2.255-5.426-0.076-7.523L280.506,70.059
			c2.18-2.099,5.746-2.128,7.966-0.073c2.22,2.057,2.253,5.425,0.079,7.522l-118.53,114.185
			C168.919,192.756,167.459,193.289,166,193.289z"/>
	</g>
</g>
</svg>
