<?xml version="1.0" encoding="utf-8"?>
<!-- Generator: Adobe Illustrator 16.0.1, SVG Export Plug-In . SVG Version: 6.00 Build 0)  -->
<!DOCTYPE svg PUBLIC "-//W3C//DTD SVG 1.1//EN" "http://www.w3.org/Graphics/SVG/1.1/DTD/svg11.dtd">
<svg version="1.1" id="Слой_1" xmlns="http://www.w3.org/2000/svg" xmlns:xlink="http://www.w3.org/1999/xlink" x="0px" y="0px"
	 width="300px" height="284.672px" viewBox="0 0 300 284.672" enable-background="new 0 0 300 284.672" xml:space="preserve">
<g>
	<g>
		<path fill="#576074" d="M150.777,282.639H27.446c-3.459,0-6.264-3.02-6.264-6.748s2.804-6.748,6.264-6.748h123.331
			c3.46,0,6.263,3.02,6.263,6.748S154.237,282.639,150.777,282.639z"/>
	</g>
	<g>
		<path fill="#576074" d="M20.727,282.639c-10.087,0-18.293-8.842-18.293-19.709c0-10.866,8.207-19.704,18.293-19.704
			c10.083,0,18.288,8.838,18.288,19.704C39.015,273.797,30.81,282.639,20.727,282.639z M20.727,256.721
			c-3.181,0-5.767,2.786-5.767,6.209c0,3.425,2.586,6.213,5.767,6.213c3.177,0,5.761-2.788,5.761-6.213
			C26.487,259.507,23.904,256.721,20.727,256.721z"/>
	</g>
	<g>
		<g>
			<path fill="#576074" d="M159.575,282.639c-8.95,0-17.608-0.111-26.467-0.343c-22.372-0.586-40.77-5.343-54.687-14.138
				c-27.293-15.62-42.018-49.285-35.813-81.93c6.656-35.035,35.545-60.465,68.694-60.465c4.72,0,9.477,0.52,14.141,1.549
				c18.189,4.011,29.958,18.34,40.339,30.984c2.785,3.392,5.417,6.594,8.057,9.465c10.561,11.486,32.296,22.88,36.577,24.896
				c11.861,2.763,22.215,9.75,29.176,19.719c7.257,10.383,9.991,22.735,7.703,34.778c-5.69,29.92-27.765,34.456-48.605,34.945
				C182.854,282.473,170.789,282.639,159.575,282.639z M111.302,139.26c-27.225,0-50.953,20.893-56.422,49.675
				c-5.106,26.86,7.036,54.561,29.523,67.362c0.086,0.051,0.17,0.101,0.253,0.154c12.073,7.666,28.476,11.821,48.756,12.353
				c8.755,0.229,17.315,0.339,26.163,0.339c11.118,0,23.1-0.165,38.841-0.536c26.894-0.633,33.786-9.339,36.606-24.16
				c1.556-8.199-0.373-16.705-5.438-23.955c-5.238-7.499-13.154-12.737-22.284-14.75c-1.805-0.407-28.814-13.749-42.36-28.481
				c-2.89-3.142-5.635-6.482-8.54-10.021c-9.527-11.602-19.378-23.597-33.47-26.704C119.092,139.69,115.179,139.26,111.302,139.26z"
				/>
		</g>
		<g>
			<path fill="#576074" d="M110.63,137.764c-2.306,0-4.522-1.377-5.617-3.752c-0.094-0.207-9.632-20.878-18.47-37.193
				c-4.139-7.641-7.054-8.466-12.344-9.964c-4.093-1.158-9.187-2.601-15.147-7.229c-6.404-4.977-8.876-10.213-7.349-15.564
				c1.802-6.309,8.052-12.284,41.291-13.276c1.036-0.031,2.282-0.102,3.671-0.181c11.625-0.657,27.537-1.546,33.026,8.688
				c1.283,2.392,1.425,5.263,0.388,7.874c-3.514,8.853-21.934,14.075-25.59,15.03c-3.362,0.875-6.749-1.344-7.564-4.964
				c-0.816-3.623,1.247-7.271,4.608-8.149c4.943-1.295,9.504-3.135,12.738-4.785c-3.222-0.49-8.483-0.689-16.953-0.215
				c-1.507,0.085-2.859,0.16-3.98,0.193c-17.041,0.509-24.665,2.361-27.928,3.609c0.28,0.242,0.6,0.505,0.968,0.791
				c4.068,3.16,7.438,4.114,11.005,5.125c6.198,1.755,13.224,3.746,19.978,16.211c9.057,16.719,18.477,37.141,18.874,38.001
				c1.536,3.339,0.27,7.387-2.827,9.043C112.514,137.538,111.565,137.764,110.63,137.764z"/>
		</g>
		<g>
			<path fill="#576074" d="M237.421,224.03c-1.074,0-2.16-0.298-3.152-0.922c-2.986-1.88-3.994-6.013-2.252-9.23
				c13.07-24.11,49.884-124.086,52.151-148.475c0.135-1.452,0.306-2.968,0.48-4.522c1.241-11.034,1.714-19.126-3.573-22.803
				c-5.354-3.729-16.071-3.59-26.434-3.473c-14.229,0.17-27.647,0.331-35.173-8.348c-3.694-4.259-5.303-9.993-4.782-17.04
				c0.272-3.712,3.246-6.508,6.737-6.192c3.446,0.294,6.021,3.543,5.748,7.26c-0.347,4.688,1.007,6.245,1.447,6.757
				c3.76,4.336,15.516,4.189,25.883,4.068c12.221-0.148,24.851-0.298,33.368,5.631c12.281,8.54,10.51,24.274,9.214,35.765
				c-0.164,1.459-0.324,2.878-0.449,4.242c-2.441,26.241-39.979,128.44-53.8,153.935C241.671,222.831,239.574,224.03,237.421,224.03
				z"/>
		</g>
		<g>
			<path fill="#576074" d="M222.954,207.666c-0.94,0-1.894-0.229-2.788-0.708c-3.097-1.664-4.355-5.717-2.812-9.052
				C232.12,165.98,262.073,81.44,264.063,59.575c0.141-1.529,0.319-3.092,0.501-4.677c1.271-11.106,1.352-16.708-3.366-20.058
				c-2.89-2.049-3.689-6.236-1.784-9.347c1.899-3.113,5.789-3.974,8.675-1.922c11.728,8.325,10.099,22.573,8.906,32.979
				c-0.169,1.471-0.334,2.925-0.465,4.344c-2.166,23.799-32.75,110.137-47.968,143.031
				C227.468,206.294,225.255,207.666,222.954,207.666z"/>
		</g>
		<g>
			<path fill="#576074" d="M89.404,240.954c-1.088,0-2.19-0.307-3.193-0.947c-2.974-1.901-3.953-6.042-2.186-9.247l11.979-21.723
				c1.765-3.208,5.607-4.257,8.583-2.355c2.973,1.903,3.952,6.044,2.186,9.248l-11.979,21.723
				C93.625,239.776,91.542,240.954,89.404,240.954z"/>
		</g>
		<g>
			<path fill="#576074" d="M113.092,194.38c-1.088,0-2.189-0.305-3.194-0.947c-2.974-1.904-3.951-6.045-2.184-9.247l10.757-19.507
				c1.769-3.206,5.61-4.256,8.586-2.354c2.973,1.904,3.951,6.046,2.184,9.248l-10.758,19.506
				C117.312,193.204,115.229,194.38,113.092,194.38z"/>
		</g>
		<g>
			<path fill="#576074" d="M102.753,240.864H78.312c-3.459,0-6.263-3.021-6.263-6.749c0-3.727,2.804-6.747,6.263-6.747h24.441
				c3.459,0,6.263,3.021,6.263,6.747C109.017,237.843,106.213,240.864,102.753,240.864z"/>
		</g>
		<g>
			<path fill="#576074" d="M133.562,173.301h-23.396c-3.459,0-6.263-3.021-6.263-6.748s2.804-6.747,6.263-6.747h23.396
				c3.46,0,6.263,3.02,6.263,6.747S137.022,173.301,133.562,173.301z"/>
		</g>
		<g>
			<path fill="#576074" d="M106.633,219.515c-10.085,0-18.291-8.84-18.291-19.706c0-10.867,8.206-19.706,18.291-19.706
				c10.084,0,18.291,8.839,18.291,19.706C124.924,210.675,116.718,219.515,106.633,219.515z M106.633,193.597
				c-3.179,0-5.764,2.787-5.764,6.212c0,3.424,2.585,6.208,5.764,6.208c3.178,0,5.764-2.784,5.764-6.208
				C112.397,196.384,109.812,193.597,106.633,193.597z"/>
		</g>
	</g>
</g>
</svg>
