<?xml version="1.0" encoding="utf-8"?>
<!-- Generator: Adobe Illustrator 16.0.1, SVG Export Plug-In . SVG Version: 6.00 Build 0)  -->
<!DOCTYPE svg PUBLIC "-//W3C//DTD SVG 1.1//EN" "http://www.w3.org/Graphics/SVG/1.1/DTD/svg11.dtd">
<svg version="1.1" id="Слой_1" xmlns="http://www.w3.org/2000/svg" xmlns:xlink="http://www.w3.org/1999/xlink" x="0px" y="0px"
	 width="294.769px" height="297.484px" viewBox="0 0 294.769 297.484" enable-background="new 0 0 294.769 297.484"
	 xml:space="preserve">
<g>
	<g>
		<path fill="#576074" d="M276.108,296.484c-3.148,0-6.107-1.845-7.257-4.82c-7.295-18.898-32.31-27.129-40.859-29.434
			c-59.111,34.563-115.263,30.336-152.204,20.555c-40.489-10.719-66.575-29.834-67.667-30.644c-1.615-1.199-2.665-2.959-2.919-4.893
			C-5.324,166.748,56.693,29.169,59.337,23.354c0.861-1.891,2.514-3.353,4.56-4.027c5.069-1.673,50.007-16.358,67.497-16.75
			c18.438-0.435,23.292,2.585,32.428,11.272c6.039,5.741,21.158,26.636,19.448,39.678c-0.559,4.255-2.835,7.714-6.402,9.733
			c-1.201,0.68-2.577,1.542-4.097,2.489c-10.937,6.811-31.287,19.485-47.249,4.892c-7.015-6.414-16.025-10.432-22.993-10.224
			c-3.115,0.091-5.546,1.018-7.227,2.757c-5.571,6.585-3.656,53.453,1.857,77.05c2.731,11.689,4.931,27.081,6.353,38.535
			c9.181-7.758,22.932-16.422,38.999-17.017c29.179-1.065,46.124,11.044,54.444,22.442c38.202-38.164,88.832-22.716,89.376-22.546
			c4.05,1.284,6.238,5.448,4.886,9.3c-1.346,3.843-5.717,5.933-9.756,4.655l0,0c-1.952-0.604-48.096-14.359-79.981,26.271
			c-1.77,2.258-4.739,3.358-7.648,2.825c-2.908-0.529-5.244-2.59-6.012-5.309c-0.284-0.934-7.861-24.339-44.704-22.946
			c-17.856,0.663-34.417,17.077-39.292,23.345c-1.908,2.456-5.207,3.53-8.296,2.712c-3.088-0.82-5.322-3.369-5.617-6.409
			c-0.034-0.325-3.212-32.843-7.844-52.671c-2.932-12.55-11.802-76.072,1.857-90.194c4.539-4.691,10.808-7.285,18.134-7.498
			c11.231-0.356,24.017,5.028,34.181,14.323c6.542,5.98,17.003,0.29,28.064-6.596c1.33-0.83,2.571-1.601,3.693-2.264
			c0.204-5.009-8.423-20.586-15.101-26.938c-6.634-6.306-7.63-7.273-21.133-6.971c-11.842,0.268-44.393,10.008-59.546,14.886
			c-8.886,20.294-59.338,139.417-52.035,210.138c7.265,4.814,29.528,18.413,60.309,26.47c49.997,13.089,97.794,6.142,142.063-20.646
			c1.703-1.031,3.765-1.388,5.737-0.991c1.765,0.353,43.305,8.971,55.077,39.464c1.472,3.813-0.587,8.036-4.593,9.437
			C277.892,296.339,276.994,296.484,276.108,296.484z"/>
	</g>
</g>
</svg>
