<?xml version="1.0" encoding="iso-8859-1"?>
<!-- Generator: Adobe Illustrator 18.1.1, SVG Export Plug-In . SVG Version: 6.00 Build 0)  -->
<svg version="1.1" id="Capa_1" xmlns="http://www.w3.org/2000/svg" xmlns:xlink="http://www.w3.org/1999/xlink" x="0px" y="0px"
	 viewBox="0 0 436.333 436.333" style="enable-background:new 0 0 436.333 436.333;" xml:space="preserve">
<g>
	<g>
		<path d="M436.333,56.667c0-9.35-7.65-17-17-17H17c-9.35,0-17,7.65-17,17v323c0,9.35,7.65,17,17,17h402.333c9.35,0,17-7.65,17-17
			V56.667z M34,362.667v-201.45l170.85,147.05c3.117,2.833,6.8,3.967,10.767,3.967c3.967,0,8.217-1.417,11.617-3.967l175.1-146.483
			v200.883H34z M402.333,73.667v43.917c-2.833,0.283-1.417,0.567-1.7,0.567L215.9,273.133L34.567,117.3
			c-0.283-0.283-0.567-0.567-0.567-0.85V73.667H402.333z"/>
	</g>
</g>
<g>
</g>
<g>
</g>
<g>
</g>
<g>
</g>
<g>
</g>
<g>
</g>
<g>
</g>
<g>
</g>
<g>
</g>
<g>
</g>
<g>
</g>
<g>
</g>
<g>
</g>
<g>
</g>
<g>
</g>
</svg>
